G04 #@! TF.GenerationSoftware,KiCad,Pcbnew,(5.1.5)-3*
G04 #@! TF.CreationDate,2020-07-16T13:32:41-05:00*
G04 #@! TF.ProjectId,pcb,7063622e-6b69-4636-9164-5f7063625858,rev?*
G04 #@! TF.SameCoordinates,Original*
G04 #@! TF.FileFunction,Copper,L1,Top*
G04 #@! TF.FilePolarity,Positive*
%FSLAX46Y46*%
G04 Gerber Fmt 4.6, Leading zero omitted, Abs format (unit mm)*
G04 Created by KiCad (PCBNEW (5.1.5)-3) date 2020-07-16 13:32:41*
%MOMM*%
%LPD*%
G04 APERTURE LIST*
%ADD10R,2.000000X2.000000*%
%ADD11C,2.000000*%
%ADD12R,1.250000X1.000000*%
%ADD13R,1.060000X0.650000*%
%ADD14C,0.250000*%
G04 APERTURE END LIST*
D10*
X133985000Y-105410000D03*
D11*
X133985000Y-97810000D03*
D12*
X138874500Y-102600000D03*
X138874500Y-100600000D03*
X131000500Y-97822000D03*
X131000500Y-99822000D03*
X136969500Y-99790000D03*
X136969500Y-97790000D03*
X136969500Y-105410000D03*
X136969500Y-103410000D03*
D13*
X132885000Y-100650000D03*
X132885000Y-101600000D03*
X132885000Y-102550000D03*
X135085000Y-102550000D03*
X135085000Y-100650000D03*
X135085000Y-101600000D03*
D11*
X129540000Y-101600000D03*
X130873500Y-104775000D03*
D14*
X138874500Y-103350000D02*
X138874500Y-102600000D01*
X138874500Y-103630000D02*
X138874500Y-103350000D01*
X137094500Y-105410000D02*
X138874500Y-103630000D01*
X136969500Y-105410000D02*
X137094500Y-105410000D01*
X132885000Y-98831500D02*
X132885000Y-100075000D01*
X132885000Y-100075000D02*
X132885000Y-100650000D01*
X131875500Y-97822000D02*
X132885000Y-98831500D01*
X131000500Y-97822000D02*
X131875500Y-97822000D01*
X136969500Y-100540000D02*
X136969500Y-99790000D01*
X136859500Y-100650000D02*
X136969500Y-100540000D01*
X135085000Y-100650000D02*
X136859500Y-100650000D01*
X136949500Y-97810000D02*
X136969500Y-97790000D01*
X133985000Y-97810000D02*
X136949500Y-97810000D01*
X136969500Y-102660000D02*
X136969500Y-103410000D01*
X136859500Y-102550000D02*
X136969500Y-102660000D01*
X135085000Y-102550000D02*
X136859500Y-102550000D01*
X130873500Y-103781500D02*
X130873500Y-104775000D01*
X132105000Y-102550000D02*
X130873500Y-103781500D01*
X132885000Y-102550000D02*
X132105000Y-102550000D01*
X134305000Y-101600000D02*
X135085000Y-101600000D01*
X133985000Y-101920000D02*
X134305000Y-101600000D01*
X133985000Y-105410000D02*
X133985000Y-101920000D01*
X135865000Y-101600000D02*
X135085000Y-101600000D01*
X136999500Y-101600000D02*
X135865000Y-101600000D01*
X137999500Y-100600000D02*
X136999500Y-101600000D01*
X138874500Y-100600000D02*
X137999500Y-100600000D01*
X132105000Y-101600000D02*
X129540000Y-101600000D01*
X132885000Y-101600000D02*
X132105000Y-101600000D01*
X132885000Y-101600000D02*
X132028500Y-101600000D01*
X132885000Y-101600000D02*
X131381500Y-101600000D01*
X131000500Y-101219000D02*
X131000500Y-99822000D01*
X131381500Y-101600000D02*
X131000500Y-101219000D01*
M02*
