G04 #@! TF.GenerationSoftware,KiCad,Pcbnew,(5.1.5)-3*
G04 #@! TF.CreationDate,2020-07-16T13:32:41-05:00*
G04 #@! TF.ProjectId,pcb,7063622e-6b69-4636-9164-5f7063625858,rev?*
G04 #@! TF.SameCoordinates,Original*
G04 #@! TF.FileFunction,Soldermask,Bot*
G04 #@! TF.FilePolarity,Negative*
%FSLAX46Y46*%
G04 Gerber Fmt 4.6, Leading zero omitted, Abs format (unit mm)*
G04 Created by KiCad (PCBNEW (5.1.5)-3) date 2020-07-16 13:32:41*
%MOMM*%
%LPD*%
G04 APERTURE LIST*
%ADD10C,0.100000*%
G04 APERTURE END LIST*
D10*
G36*
X135036000Y-106461000D02*
G01*
X132934000Y-106461000D01*
X132934000Y-104359000D01*
X135036000Y-104359000D01*
X135036000Y-106461000D01*
G37*
G36*
X131180064Y-103764389D02*
G01*
X131371333Y-103843615D01*
X131371335Y-103843616D01*
X131543473Y-103958635D01*
X131689865Y-104105027D01*
X131804885Y-104277167D01*
X131884111Y-104468436D01*
X131924500Y-104671484D01*
X131924500Y-104878516D01*
X131884111Y-105081564D01*
X131804885Y-105272833D01*
X131804884Y-105272835D01*
X131689865Y-105444973D01*
X131543473Y-105591365D01*
X131371335Y-105706384D01*
X131371334Y-105706385D01*
X131371333Y-105706385D01*
X131180064Y-105785611D01*
X130977016Y-105826000D01*
X130769984Y-105826000D01*
X130566936Y-105785611D01*
X130375667Y-105706385D01*
X130375666Y-105706385D01*
X130375665Y-105706384D01*
X130203527Y-105591365D01*
X130057135Y-105444973D01*
X129942116Y-105272835D01*
X129942115Y-105272833D01*
X129862889Y-105081564D01*
X129822500Y-104878516D01*
X129822500Y-104671484D01*
X129862889Y-104468436D01*
X129942115Y-104277167D01*
X130057135Y-104105027D01*
X130203527Y-103958635D01*
X130375665Y-103843616D01*
X130375667Y-103843615D01*
X130566936Y-103764389D01*
X130769984Y-103724000D01*
X130977016Y-103724000D01*
X131180064Y-103764389D01*
G37*
G36*
X137830000Y-105445000D02*
G01*
X135728000Y-105445000D01*
X135728000Y-103343000D01*
X137830000Y-103343000D01*
X137830000Y-105445000D01*
G37*
G36*
X129846564Y-100589389D02*
G01*
X130037833Y-100668615D01*
X130037835Y-100668616D01*
X130209973Y-100783635D01*
X130356365Y-100930027D01*
X130471385Y-101102167D01*
X130550611Y-101293436D01*
X130591000Y-101496484D01*
X130591000Y-101703516D01*
X130550611Y-101906564D01*
X130471385Y-102097833D01*
X130471384Y-102097835D01*
X130356365Y-102269973D01*
X130209973Y-102416365D01*
X130037835Y-102531384D01*
X130037834Y-102531385D01*
X130037833Y-102531385D01*
X129846564Y-102610611D01*
X129643516Y-102651000D01*
X129436484Y-102651000D01*
X129233436Y-102610611D01*
X129042167Y-102531385D01*
X129042166Y-102531385D01*
X129042165Y-102531384D01*
X128870027Y-102416365D01*
X128723635Y-102269973D01*
X128608616Y-102097835D01*
X128608615Y-102097833D01*
X128529389Y-101906564D01*
X128489000Y-101703516D01*
X128489000Y-101496484D01*
X128529389Y-101293436D01*
X128608615Y-101102167D01*
X128723635Y-100930027D01*
X128870027Y-100783635D01*
X129042165Y-100668616D01*
X129042167Y-100668615D01*
X129233436Y-100589389D01*
X129436484Y-100549000D01*
X129643516Y-100549000D01*
X129846564Y-100589389D01*
G37*
G36*
X132242000Y-99857000D02*
G01*
X130140000Y-99857000D01*
X130140000Y-97755000D01*
X132242000Y-97755000D01*
X132242000Y-99857000D01*
G37*
G36*
X134291564Y-96799389D02*
G01*
X134482833Y-96878615D01*
X134482835Y-96878616D01*
X134654973Y-96993635D01*
X134801365Y-97140027D01*
X134916385Y-97312167D01*
X134995611Y-97503436D01*
X135036000Y-97706484D01*
X135036000Y-97913516D01*
X134995611Y-98116564D01*
X134916385Y-98307833D01*
X134916384Y-98307835D01*
X134801365Y-98479973D01*
X134654973Y-98626365D01*
X134482835Y-98741384D01*
X134482834Y-98741385D01*
X134482833Y-98741385D01*
X134291564Y-98820611D01*
X134088516Y-98861000D01*
X133881484Y-98861000D01*
X133678436Y-98820611D01*
X133487167Y-98741385D01*
X133487166Y-98741385D01*
X133487165Y-98741384D01*
X133315027Y-98626365D01*
X133168635Y-98479973D01*
X133053616Y-98307835D01*
X133053615Y-98307833D01*
X132974389Y-98116564D01*
X132934000Y-97913516D01*
X132934000Y-97706484D01*
X132974389Y-97503436D01*
X133053615Y-97312167D01*
X133168635Y-97140027D01*
X133315027Y-96993635D01*
X133487165Y-96878616D01*
X133487167Y-96878615D01*
X133678436Y-96799389D01*
X133881484Y-96759000D01*
X134088516Y-96759000D01*
X134291564Y-96799389D01*
G37*
M02*
