%TF.GenerationSoftware,KiCad,Pcbnew,(5.1.8)-1*%
%TF.CreationDate,2022-12-05T23:25:29-06:00*%
%TF.ProjectId,pcb,7063622e-6b69-4636-9164-5f7063625858,rev?*%
%TF.SameCoordinates,Original*%
%TF.FileFunction,Legend,Top*%
%TF.FilePolarity,Positive*%
%FSLAX46Y46*%
G04 Gerber Fmt 4.6, Leading zero omitted, Abs format (unit mm)*
G04 Created by KiCad (PCBNEW (5.1.8)-1) date 2022-12-05 23:25:29*
%MOMM*%
%LPD*%
G01*
G04 APERTURE LIST*
%ADD10C,0.150000*%
%ADD11C,0.100000*%
%ADD12C,0.120000*%
%ADD13C,0.130000*%
G04 APERTURE END LIST*
D10*
X99266642Y-66889380D02*
X99838071Y-66889380D01*
X99552357Y-67889380D02*
X99552357Y-66889380D01*
X100552357Y-67841761D02*
X100457119Y-67889380D01*
X100266642Y-67889380D01*
X100171404Y-67841761D01*
X100123785Y-67746523D01*
X100123785Y-67365571D01*
X100171404Y-67270333D01*
X100266642Y-67222714D01*
X100457119Y-67222714D01*
X100552357Y-67270333D01*
X100599976Y-67365571D01*
X100599976Y-67460809D01*
X100123785Y-67556047D01*
X100980928Y-67841761D02*
X101076166Y-67889380D01*
X101266642Y-67889380D01*
X101361880Y-67841761D01*
X101409500Y-67746523D01*
X101409500Y-67698904D01*
X101361880Y-67603666D01*
X101266642Y-67556047D01*
X101123785Y-67556047D01*
X101028547Y-67508428D01*
X100980928Y-67413190D01*
X100980928Y-67365571D01*
X101028547Y-67270333D01*
X101123785Y-67222714D01*
X101266642Y-67222714D01*
X101361880Y-67270333D01*
X101695214Y-67222714D02*
X102076166Y-67222714D01*
X101838071Y-66889380D02*
X101838071Y-67746523D01*
X101885690Y-67841761D01*
X101980928Y-67889380D01*
X102076166Y-67889380D01*
X102790452Y-67841761D02*
X102695214Y-67889380D01*
X102504738Y-67889380D01*
X102409500Y-67841761D01*
X102361880Y-67746523D01*
X102361880Y-67365571D01*
X102409500Y-67270333D01*
X102504738Y-67222714D01*
X102695214Y-67222714D01*
X102790452Y-67270333D01*
X102838071Y-67365571D01*
X102838071Y-67460809D01*
X102361880Y-67556047D01*
X103266642Y-67889380D02*
X103266642Y-67222714D01*
X103266642Y-67413190D02*
X103314261Y-67317952D01*
X103361880Y-67270333D01*
X103457119Y-67222714D01*
X103552357Y-67222714D01*
X93686452Y-67794142D02*
X93638833Y-67841761D01*
X93495976Y-67889380D01*
X93400738Y-67889380D01*
X93257880Y-67841761D01*
X93162642Y-67746523D01*
X93115023Y-67651285D01*
X93067404Y-67460809D01*
X93067404Y-67317952D01*
X93115023Y-67127476D01*
X93162642Y-67032238D01*
X93257880Y-66937000D01*
X93400738Y-66889380D01*
X93495976Y-66889380D01*
X93638833Y-66937000D01*
X93686452Y-66984619D01*
X94257880Y-67889380D02*
X94162642Y-67841761D01*
X94115023Y-67794142D01*
X94067404Y-67698904D01*
X94067404Y-67413190D01*
X94115023Y-67317952D01*
X94162642Y-67270333D01*
X94257880Y-67222714D01*
X94400738Y-67222714D01*
X94495976Y-67270333D01*
X94543595Y-67317952D01*
X94591214Y-67413190D01*
X94591214Y-67698904D01*
X94543595Y-67794142D01*
X94495976Y-67841761D01*
X94400738Y-67889380D01*
X94257880Y-67889380D01*
X95019785Y-67222714D02*
X95019785Y-67889380D01*
X95019785Y-67317952D02*
X95067404Y-67270333D01*
X95162642Y-67222714D01*
X95305500Y-67222714D01*
X95400738Y-67270333D01*
X95448357Y-67365571D01*
X95448357Y-67889380D01*
X95781690Y-67222714D02*
X96162642Y-67222714D01*
X95924547Y-66889380D02*
X95924547Y-67746523D01*
X95972166Y-67841761D01*
X96067404Y-67889380D01*
X96162642Y-67889380D01*
X96495976Y-67794142D02*
X96543595Y-67841761D01*
X96495976Y-67889380D01*
X96448357Y-67841761D01*
X96495976Y-67794142D01*
X96495976Y-67889380D01*
D11*
%TO.C,R2*%
X99457000Y-60442000D02*
X101457000Y-60442000D01*
X99457000Y-59192000D02*
X101457000Y-59192000D01*
%TO.C,D1*%
X104736900Y-61798200D02*
X103466900Y-61798200D01*
X103476900Y-62512700D02*
X103476900Y-64512700D01*
X104726900Y-62512700D02*
X104726900Y-64512700D01*
D12*
%TO.C,U1*%
X97663000Y-66060000D02*
X101113000Y-66060000D01*
X97663000Y-66060000D02*
X95713000Y-66060000D01*
X97663000Y-60940000D02*
X99613000Y-60940000D01*
X97663000Y-60940000D02*
X95713000Y-60940000D01*
D11*
%TO.C,C1*%
X98107500Y-66548000D02*
X97218500Y-66548000D01*
X98107500Y-67564000D02*
X97218500Y-67564000D01*
%TO.C,R1*%
X91122500Y-65786000D02*
X91122500Y-64897000D01*
X92138500Y-65786000D02*
X92138500Y-64897000D01*
%TO.C,R3*%
X102743000Y-63944500D02*
X102743000Y-63055500D01*
X101727000Y-63944500D02*
X101727000Y-63055500D01*
%TO.C,R4*%
X92646500Y-63881000D02*
X92646500Y-64770000D01*
X93662500Y-63881000D02*
X93662500Y-64770000D01*
%TO.C,R5*%
X90577896Y-62235429D02*
X89872605Y-62776618D01*
X89959395Y-61429382D02*
X89254104Y-61970571D01*
%TO.C,TP2*%
D13*
X96272476Y-59442404D02*
X96729619Y-59442404D01*
X96501047Y-60242404D02*
X96501047Y-59442404D01*
X96996285Y-60242404D02*
X96996285Y-59442404D01*
X97301047Y-59442404D01*
X97377238Y-59480500D01*
X97415333Y-59518595D01*
X97453428Y-59594785D01*
X97453428Y-59709071D01*
X97415333Y-59785261D01*
X97377238Y-59823357D01*
X97301047Y-59861452D01*
X96996285Y-59861452D01*
X97758190Y-59518595D02*
X97796285Y-59480500D01*
X97872476Y-59442404D01*
X98062952Y-59442404D01*
X98139142Y-59480500D01*
X98177238Y-59518595D01*
X98215333Y-59594785D01*
X98215333Y-59670976D01*
X98177238Y-59785261D01*
X97720095Y-60242404D01*
X98215333Y-60242404D01*
%TO.C,R2*%
D11*
X100683190Y-59900333D02*
X100445095Y-60067000D01*
X100683190Y-60186047D02*
X100183190Y-60186047D01*
X100183190Y-59995571D01*
X100207000Y-59947952D01*
X100230809Y-59924142D01*
X100278428Y-59900333D01*
X100349857Y-59900333D01*
X100397476Y-59924142D01*
X100421285Y-59947952D01*
X100445095Y-59995571D01*
X100445095Y-60186047D01*
X100230809Y-59709857D02*
X100207000Y-59686047D01*
X100183190Y-59638428D01*
X100183190Y-59519380D01*
X100207000Y-59471761D01*
X100230809Y-59447952D01*
X100278428Y-59424142D01*
X100326047Y-59424142D01*
X100397476Y-59447952D01*
X100683190Y-59733666D01*
X100683190Y-59424142D01*
%TO.C,D1*%
X103732852Y-63738890D02*
X103732852Y-63238890D01*
X103851900Y-63238890D01*
X103923328Y-63262700D01*
X103970947Y-63310319D01*
X103994757Y-63357938D01*
X104018566Y-63453176D01*
X104018566Y-63524604D01*
X103994757Y-63619842D01*
X103970947Y-63667461D01*
X103923328Y-63715080D01*
X103851900Y-63738890D01*
X103732852Y-63738890D01*
X104494757Y-63738890D02*
X104209042Y-63738890D01*
X104351900Y-63738890D02*
X104351900Y-63238890D01*
X104304280Y-63310319D01*
X104256661Y-63357938D01*
X104209042Y-63381747D01*
%TO.C,U1*%
D12*
X98024904Y-64509523D02*
X97224904Y-64509523D01*
X97224904Y-64204761D01*
X97263000Y-64128571D01*
X97301095Y-64090476D01*
X97377285Y-64052380D01*
X97491571Y-64052380D01*
X97567761Y-64090476D01*
X97605857Y-64128571D01*
X97643952Y-64204761D01*
X97643952Y-64509523D01*
X98024904Y-63709523D02*
X97224904Y-63709523D01*
X97224904Y-63519047D01*
X97263000Y-63404761D01*
X97339190Y-63328571D01*
X97415380Y-63290476D01*
X97567761Y-63252380D01*
X97682047Y-63252380D01*
X97834428Y-63290476D01*
X97910619Y-63328571D01*
X97986809Y-63404761D01*
X98024904Y-63519047D01*
X98024904Y-63709523D01*
X98024904Y-62909523D02*
X97224904Y-62909523D01*
X98024904Y-62452380D02*
X97567761Y-62795238D01*
X97224904Y-62452380D02*
X97682047Y-62909523D01*
%TO.C,C1*%
D11*
X97841571Y-67139333D02*
X97865380Y-67163142D01*
X97889190Y-67234571D01*
X97889190Y-67282190D01*
X97865380Y-67353619D01*
X97817761Y-67401238D01*
X97770142Y-67425047D01*
X97674904Y-67448857D01*
X97603476Y-67448857D01*
X97508238Y-67425047D01*
X97460619Y-67401238D01*
X97413000Y-67353619D01*
X97389190Y-67282190D01*
X97389190Y-67234571D01*
X97413000Y-67163142D01*
X97436809Y-67139333D01*
X97889190Y-66663142D02*
X97889190Y-66948857D01*
X97889190Y-66806000D02*
X97389190Y-66806000D01*
X97460619Y-66853619D01*
X97508238Y-66901238D01*
X97532047Y-66948857D01*
%TO.C,TP1*%
D13*
X90557476Y-63061904D02*
X91014619Y-63061904D01*
X90786047Y-63861904D02*
X90786047Y-63061904D01*
X91281285Y-63861904D02*
X91281285Y-63061904D01*
X91586047Y-63061904D01*
X91662238Y-63100000D01*
X91700333Y-63138095D01*
X91738428Y-63214285D01*
X91738428Y-63328571D01*
X91700333Y-63404761D01*
X91662238Y-63442857D01*
X91586047Y-63480952D01*
X91281285Y-63480952D01*
X92500333Y-63861904D02*
X92043190Y-63861904D01*
X92271761Y-63861904D02*
X92271761Y-63061904D01*
X92195571Y-63176190D01*
X92119380Y-63252380D01*
X92043190Y-63290476D01*
%TO.C,R1*%
D11*
X91547166Y-65567690D02*
X91380500Y-65329595D01*
X91261452Y-65567690D02*
X91261452Y-65067690D01*
X91451928Y-65067690D01*
X91499547Y-65091500D01*
X91523357Y-65115309D01*
X91547166Y-65162928D01*
X91547166Y-65234357D01*
X91523357Y-65281976D01*
X91499547Y-65305785D01*
X91451928Y-65329595D01*
X91261452Y-65329595D01*
X92023357Y-65567690D02*
X91737642Y-65567690D01*
X91880500Y-65567690D02*
X91880500Y-65067690D01*
X91832880Y-65139119D01*
X91785261Y-65186738D01*
X91737642Y-65210547D01*
%TO.C,R3*%
X102151666Y-63726190D02*
X101985000Y-63488095D01*
X101865952Y-63726190D02*
X101865952Y-63226190D01*
X102056428Y-63226190D01*
X102104047Y-63250000D01*
X102127857Y-63273809D01*
X102151666Y-63321428D01*
X102151666Y-63392857D01*
X102127857Y-63440476D01*
X102104047Y-63464285D01*
X102056428Y-63488095D01*
X101865952Y-63488095D01*
X102318333Y-63226190D02*
X102627857Y-63226190D01*
X102461190Y-63416666D01*
X102532619Y-63416666D01*
X102580238Y-63440476D01*
X102604047Y-63464285D01*
X102627857Y-63511904D01*
X102627857Y-63630952D01*
X102604047Y-63678571D01*
X102580238Y-63702380D01*
X102532619Y-63726190D01*
X102389761Y-63726190D01*
X102342142Y-63702380D01*
X102318333Y-63678571D01*
%TO.C,R4*%
X93071166Y-64551690D02*
X92904500Y-64313595D01*
X92785452Y-64551690D02*
X92785452Y-64051690D01*
X92975928Y-64051690D01*
X93023547Y-64075500D01*
X93047357Y-64099309D01*
X93071166Y-64146928D01*
X93071166Y-64218357D01*
X93047357Y-64265976D01*
X93023547Y-64289785D01*
X92975928Y-64313595D01*
X92785452Y-64313595D01*
X93499738Y-64218357D02*
X93499738Y-64551690D01*
X93380690Y-64027880D02*
X93261642Y-64385023D01*
X93571166Y-64385023D01*
%TO.C,R5*%
X89685820Y-62174583D02*
X89773254Y-61897414D01*
X89511889Y-61947910D02*
X89908565Y-61643530D01*
X90024520Y-61794645D01*
X90034619Y-61846918D01*
X90030224Y-61880301D01*
X90006940Y-61928179D01*
X89950272Y-61971662D01*
X89897998Y-61981762D01*
X89864615Y-61977367D01*
X89816737Y-61954082D01*
X89700782Y-61802967D01*
X90357889Y-62229100D02*
X90212946Y-62040206D01*
X90009558Y-62166260D01*
X90042942Y-62170655D01*
X90090820Y-62193940D01*
X90163291Y-62288386D01*
X90173391Y-62340659D01*
X90168996Y-62374043D01*
X90145711Y-62421921D01*
X90051264Y-62494393D01*
X89998991Y-62504492D01*
X89965608Y-62500097D01*
X89917730Y-62476813D01*
X89845258Y-62382366D01*
X89835159Y-62330093D01*
X89839554Y-62296709D01*
%TD*%
M02*
