%TF.GenerationSoftware,KiCad,Pcbnew,(5.1.8)-1*%
%TF.CreationDate,2022-12-05T23:25:29-06:00*%
%TF.ProjectId,pcb,7063622e-6b69-4636-9164-5f7063625858,rev?*%
%TF.SameCoordinates,Original*%
%TF.FileFunction,Copper,L1,Top*%
%TF.FilePolarity,Positive*%
%FSLAX46Y46*%
G04 Gerber Fmt 4.6, Leading zero omitted, Abs format (unit mm)*
G04 Created by KiCad (PCBNEW (5.1.8)-1) date 2022-12-05 23:25:29*
%MOMM*%
%LPD*%
G01*
G04 APERTURE LIST*
%TA.AperFunction,ComponentPad*%
%ADD10C,1.700000*%
%TD*%
%TA.AperFunction,SMDPad,CuDef*%
%ADD11R,1.000000X1.250000*%
%TD*%
%TA.AperFunction,SMDPad,CuDef*%
%ADD12R,1.250000X1.000000*%
%TD*%
%TA.AperFunction,ComponentPad*%
%ADD13O,3.000000X2.000000*%
%TD*%
%TA.AperFunction,ViaPad*%
%ADD14C,0.800000*%
%TD*%
%TA.AperFunction,Conductor*%
%ADD15C,0.800000*%
%TD*%
%TA.AperFunction,Conductor*%
%ADD16C,0.200000*%
%TD*%
%TA.AperFunction,Conductor*%
%ADD17C,0.100000*%
%TD*%
G04 APERTURE END LIST*
D10*
%TO.P,BT1,1*%
%TO.N,VDD*%
X91225411Y-61470236D03*
X104100589Y-65529764D03*
%TD*%
%TO.P,BZ1,2*%
%TO.N,Net-(BZ1-Pad2)*%
%TA.AperFunction,SMDPad,CuDef*%
G36*
G01*
X102659000Y-58900000D02*
X104859000Y-58900000D01*
G75*
G02*
X105159000Y-59200000I0J-300000D01*
G01*
X105159000Y-60600000D01*
G75*
G02*
X104859000Y-60900000I-300000J0D01*
G01*
X102659000Y-60900000D01*
G75*
G02*
X102359000Y-60600000I0J300000D01*
G01*
X102359000Y-59200000D01*
G75*
G02*
X102659000Y-58900000I300000J0D01*
G01*
G37*
%TD.AperFunction*%
%TD*%
%TO.P,TP2,1*%
%TO.N,GND*%
%TA.AperFunction,SMDPad,CuDef*%
G36*
G01*
X95751500Y-60880500D02*
X93351500Y-60880500D01*
G75*
G02*
X93051500Y-60580500I0J300000D01*
G01*
X93051500Y-59180500D01*
G75*
G02*
X93351500Y-58880500I300000J0D01*
G01*
X95751500Y-58880500D01*
G75*
G02*
X96051500Y-59180500I0J-300000D01*
G01*
X96051500Y-60580500D01*
G75*
G02*
X95751500Y-60880500I-300000J0D01*
G01*
G37*
%TD.AperFunction*%
%TD*%
D11*
%TO.P,R2,2*%
%TO.N,Net-(BZ1-Pad2)*%
X101457000Y-59817000D03*
%TO.P,R2,1*%
%TO.N,Net-(R2-Pad1)*%
X99457000Y-59817000D03*
%TD*%
D12*
%TO.P,D1,2*%
%TO.N,VDD*%
X104101900Y-64512700D03*
%TO.P,D1,1*%
%TO.N,Net-(D1-Pad1)*%
X104101900Y-62512700D03*
%TD*%
%TO.P,U1,1*%
%TO.N,VDD*%
%TA.AperFunction,SMDPad,CuDef*%
G36*
G01*
X101113000Y-65255000D02*
X101113000Y-65555000D01*
G75*
G02*
X100963000Y-65705000I-150000J0D01*
G01*
X99613000Y-65705000D01*
G75*
G02*
X99463000Y-65555000I0J150000D01*
G01*
X99463000Y-65255000D01*
G75*
G02*
X99613000Y-65105000I150000J0D01*
G01*
X100963000Y-65105000D01*
G75*
G02*
X101113000Y-65255000I0J-150000D01*
G01*
G37*
%TD.AperFunction*%
%TO.P,U1,2*%
%TO.N,Net-(R3-Pad1)*%
%TA.AperFunction,SMDPad,CuDef*%
G36*
G01*
X101113000Y-63985000D02*
X101113000Y-64285000D01*
G75*
G02*
X100963000Y-64435000I-150000J0D01*
G01*
X99613000Y-64435000D01*
G75*
G02*
X99463000Y-64285000I0J150000D01*
G01*
X99463000Y-63985000D01*
G75*
G02*
X99613000Y-63835000I150000J0D01*
G01*
X100963000Y-63835000D01*
G75*
G02*
X101113000Y-63985000I0J-150000D01*
G01*
G37*
%TD.AperFunction*%
%TO.P,U1,3*%
%TO.N,Net-(R2-Pad1)*%
%TA.AperFunction,SMDPad,CuDef*%
G36*
G01*
X101113000Y-62715000D02*
X101113000Y-63015000D01*
G75*
G02*
X100963000Y-63165000I-150000J0D01*
G01*
X99613000Y-63165000D01*
G75*
G02*
X99463000Y-63015000I0J150000D01*
G01*
X99463000Y-62715000D01*
G75*
G02*
X99613000Y-62565000I150000J0D01*
G01*
X100963000Y-62565000D01*
G75*
G02*
X101113000Y-62715000I0J-150000D01*
G01*
G37*
%TD.AperFunction*%
%TO.P,U1,4*%
%TA.AperFunction,SMDPad,CuDef*%
G36*
G01*
X101113000Y-61445000D02*
X101113000Y-61745000D01*
G75*
G02*
X100963000Y-61895000I-150000J0D01*
G01*
X99613000Y-61895000D01*
G75*
G02*
X99463000Y-61745000I0J150000D01*
G01*
X99463000Y-61445000D01*
G75*
G02*
X99613000Y-61295000I150000J0D01*
G01*
X100963000Y-61295000D01*
G75*
G02*
X101113000Y-61445000I0J-150000D01*
G01*
G37*
%TD.AperFunction*%
%TO.P,U1,5*%
%TO.N,Net-(R5-Pad2)*%
%TA.AperFunction,SMDPad,CuDef*%
G36*
G01*
X95863000Y-61445000D02*
X95863000Y-61745000D01*
G75*
G02*
X95713000Y-61895000I-150000J0D01*
G01*
X94363000Y-61895000D01*
G75*
G02*
X94213000Y-61745000I0J150000D01*
G01*
X94213000Y-61445000D01*
G75*
G02*
X94363000Y-61295000I150000J0D01*
G01*
X95713000Y-61295000D01*
G75*
G02*
X95863000Y-61445000I0J-150000D01*
G01*
G37*
%TD.AperFunction*%
%TO.P,U1,6*%
%TO.N,Net-(R1-Pad2)*%
%TA.AperFunction,SMDPad,CuDef*%
G36*
G01*
X95863000Y-62715000D02*
X95863000Y-63015000D01*
G75*
G02*
X95713000Y-63165000I-150000J0D01*
G01*
X94363000Y-63165000D01*
G75*
G02*
X94213000Y-63015000I0J150000D01*
G01*
X94213000Y-62715000D01*
G75*
G02*
X94363000Y-62565000I150000J0D01*
G01*
X95713000Y-62565000D01*
G75*
G02*
X95863000Y-62715000I0J-150000D01*
G01*
G37*
%TD.AperFunction*%
%TO.P,U1,7*%
%TO.N,Net-(R4-Pad2)*%
%TA.AperFunction,SMDPad,CuDef*%
G36*
G01*
X95863000Y-63985000D02*
X95863000Y-64285000D01*
G75*
G02*
X95713000Y-64435000I-150000J0D01*
G01*
X94363000Y-64435000D01*
G75*
G02*
X94213000Y-64285000I0J150000D01*
G01*
X94213000Y-63985000D01*
G75*
G02*
X94363000Y-63835000I150000J0D01*
G01*
X95713000Y-63835000D01*
G75*
G02*
X95863000Y-63985000I0J-150000D01*
G01*
G37*
%TD.AperFunction*%
%TO.P,U1,8*%
%TO.N,GND*%
%TA.AperFunction,SMDPad,CuDef*%
G36*
G01*
X95863000Y-65255000D02*
X95863000Y-65555000D01*
G75*
G02*
X95713000Y-65705000I-150000J0D01*
G01*
X94363000Y-65705000D01*
G75*
G02*
X94213000Y-65555000I0J150000D01*
G01*
X94213000Y-65255000D01*
G75*
G02*
X94363000Y-65105000I150000J0D01*
G01*
X95713000Y-65105000D01*
G75*
G02*
X95863000Y-65255000I0J-150000D01*
G01*
G37*
%TD.AperFunction*%
%TD*%
%TO.P,C1,1*%
%TO.N,VDD*%
%TA.AperFunction,SMDPad,CuDef*%
G36*
G01*
X98888000Y-66781000D02*
X98888000Y-67331000D01*
G75*
G02*
X98688000Y-67531000I-200000J0D01*
G01*
X98288000Y-67531000D01*
G75*
G02*
X98088000Y-67331000I0J200000D01*
G01*
X98088000Y-66781000D01*
G75*
G02*
X98288000Y-66581000I200000J0D01*
G01*
X98688000Y-66581000D01*
G75*
G02*
X98888000Y-66781000I0J-200000D01*
G01*
G37*
%TD.AperFunction*%
%TO.P,C1,2*%
%TO.N,GND*%
%TA.AperFunction,SMDPad,CuDef*%
G36*
G01*
X97238000Y-66781000D02*
X97238000Y-67331000D01*
G75*
G02*
X97038000Y-67531000I-200000J0D01*
G01*
X96638000Y-67531000D01*
G75*
G02*
X96438000Y-67331000I0J200000D01*
G01*
X96438000Y-66781000D01*
G75*
G02*
X96638000Y-66581000I200000J0D01*
G01*
X97038000Y-66581000D01*
G75*
G02*
X97238000Y-66781000I0J-200000D01*
G01*
G37*
%TD.AperFunction*%
%TD*%
D13*
%TO.P,TP1,1*%
%TO.N,Net-(R5-Pad2)*%
X89027000Y-63500000D03*
%TD*%
%TO.P,R1,2*%
%TO.N,Net-(R1-Pad2)*%
%TA.AperFunction,SMDPad,CuDef*%
G36*
G01*
X91905500Y-64916500D02*
X91355500Y-64916500D01*
G75*
G02*
X91155500Y-64716500I0J200000D01*
G01*
X91155500Y-64316500D01*
G75*
G02*
X91355500Y-64116500I200000J0D01*
G01*
X91905500Y-64116500D01*
G75*
G02*
X92105500Y-64316500I0J-200000D01*
G01*
X92105500Y-64716500D01*
G75*
G02*
X91905500Y-64916500I-200000J0D01*
G01*
G37*
%TD.AperFunction*%
%TO.P,R1,1*%
%TO.N,GND*%
%TA.AperFunction,SMDPad,CuDef*%
G36*
G01*
X91905500Y-66566500D02*
X91355500Y-66566500D01*
G75*
G02*
X91155500Y-66366500I0J200000D01*
G01*
X91155500Y-65966500D01*
G75*
G02*
X91355500Y-65766500I200000J0D01*
G01*
X91905500Y-65766500D01*
G75*
G02*
X92105500Y-65966500I0J-200000D01*
G01*
X92105500Y-66366500D01*
G75*
G02*
X91905500Y-66566500I-200000J0D01*
G01*
G37*
%TD.AperFunction*%
%TD*%
%TO.P,R3,1*%
%TO.N,Net-(R3-Pad1)*%
%TA.AperFunction,SMDPad,CuDef*%
G36*
G01*
X102510000Y-64725000D02*
X101960000Y-64725000D01*
G75*
G02*
X101760000Y-64525000I0J200000D01*
G01*
X101760000Y-64125000D01*
G75*
G02*
X101960000Y-63925000I200000J0D01*
G01*
X102510000Y-63925000D01*
G75*
G02*
X102710000Y-64125000I0J-200000D01*
G01*
X102710000Y-64525000D01*
G75*
G02*
X102510000Y-64725000I-200000J0D01*
G01*
G37*
%TD.AperFunction*%
%TO.P,R3,2*%
%TO.N,Net-(D1-Pad1)*%
%TA.AperFunction,SMDPad,CuDef*%
G36*
G01*
X102510000Y-63075000D02*
X101960000Y-63075000D01*
G75*
G02*
X101760000Y-62875000I0J200000D01*
G01*
X101760000Y-62475000D01*
G75*
G02*
X101960000Y-62275000I200000J0D01*
G01*
X102510000Y-62275000D01*
G75*
G02*
X102710000Y-62475000I0J-200000D01*
G01*
X102710000Y-62875000D01*
G75*
G02*
X102510000Y-63075000I-200000J0D01*
G01*
G37*
%TD.AperFunction*%
%TD*%
%TO.P,R4,1*%
%TO.N,Net-(R1-Pad2)*%
%TA.AperFunction,SMDPad,CuDef*%
G36*
G01*
X92879500Y-63100500D02*
X93429500Y-63100500D01*
G75*
G02*
X93629500Y-63300500I0J-200000D01*
G01*
X93629500Y-63700500D01*
G75*
G02*
X93429500Y-63900500I-200000J0D01*
G01*
X92879500Y-63900500D01*
G75*
G02*
X92679500Y-63700500I0J200000D01*
G01*
X92679500Y-63300500D01*
G75*
G02*
X92879500Y-63100500I200000J0D01*
G01*
G37*
%TD.AperFunction*%
%TO.P,R4,2*%
%TO.N,Net-(R4-Pad2)*%
%TA.AperFunction,SMDPad,CuDef*%
G36*
G01*
X92879500Y-64750500D02*
X93429500Y-64750500D01*
G75*
G02*
X93629500Y-64950500I0J-200000D01*
G01*
X93629500Y-65350500D01*
G75*
G02*
X93429500Y-65550500I-200000J0D01*
G01*
X92879500Y-65550500D01*
G75*
G02*
X92679500Y-65350500I0J200000D01*
G01*
X92679500Y-64950500D01*
G75*
G02*
X92879500Y-64750500I200000J0D01*
G01*
G37*
%TD.AperFunction*%
%TD*%
%TO.P,R5,2*%
%TO.N,Net-(R5-Pad2)*%
%TA.AperFunction,SMDPad,CuDef*%
G36*
G01*
X89411415Y-62143552D02*
X89746234Y-62579896D01*
G75*
G02*
X89709315Y-62860319I-158671J-121752D01*
G01*
X89391974Y-63103823D01*
G75*
G02*
X89111551Y-63066904I-121752J158671D01*
G01*
X88776732Y-62630560D01*
G75*
G02*
X88813651Y-62350137I158671J121752D01*
G01*
X89130992Y-62106633D01*
G75*
G02*
X89411415Y-62143552I121752J-158671D01*
G01*
G37*
%TD.AperFunction*%
%TO.P,R5,1*%
%TO.N,VDD*%
%TA.AperFunction,SMDPad,CuDef*%
G36*
G01*
X90720449Y-61139096D02*
X91055268Y-61575440D01*
G75*
G02*
X91018349Y-61855863I-158671J-121752D01*
G01*
X90701008Y-62099367D01*
G75*
G02*
X90420585Y-62062448I-121752J158671D01*
G01*
X90085766Y-61626104D01*
G75*
G02*
X90122685Y-61345681I158671J121752D01*
G01*
X90440026Y-61102177D01*
G75*
G02*
X90720449Y-61139096I121752J-158671D01*
G01*
G37*
%TD.AperFunction*%
%TD*%
D14*
%TO.N,GND*%
X97663000Y-64960500D03*
X97663000Y-59880500D03*
X96837500Y-66167000D03*
X96266000Y-65405000D03*
X97663000Y-62039500D03*
%TD*%
D15*
%TO.N,VDD*%
X104267000Y-65363353D02*
X104100589Y-65529764D01*
X104267000Y-64516000D02*
X104267000Y-65363353D01*
X103925353Y-65705000D02*
X104100589Y-65529764D01*
X104101900Y-65528453D02*
X104100589Y-65529764D01*
X104101900Y-64512700D02*
X104101900Y-65528453D01*
X103975825Y-65405000D02*
X104100589Y-65529764D01*
X100288000Y-65405000D02*
X103975825Y-65405000D01*
X100288000Y-65405000D02*
X99123500Y-65405000D01*
X98488000Y-66040500D02*
X98488000Y-67056000D01*
X99123500Y-65405000D02*
X98488000Y-66040500D01*
%TO.N,Net-(BZ1-Pad2)*%
X103549000Y-59817000D02*
X103632000Y-59900000D01*
X103485500Y-59753500D02*
X103632000Y-59900000D01*
X103676000Y-59817000D02*
X103759000Y-59900000D01*
X101457000Y-59817000D02*
X103676000Y-59817000D01*
%TO.N,Net-(D1-Pad1)*%
X104251000Y-62500000D02*
X104267000Y-62516000D01*
X102397300Y-62512700D02*
X102235000Y-62675000D01*
X104101900Y-62512700D02*
X102397300Y-62512700D01*
%TO.N,Net-(R1-Pad2)*%
X93790000Y-62865000D02*
X93154500Y-63500500D01*
X95038000Y-62865000D02*
X93790000Y-62865000D01*
X92138500Y-64516500D02*
X91630500Y-64516500D01*
X93154500Y-63500500D02*
X92138500Y-64516500D01*
%TO.N,Net-(R2-Pad1)*%
X99457000Y-60764000D02*
X100288000Y-61595000D01*
X99457000Y-59817000D02*
X99457000Y-60764000D01*
X100288000Y-61595000D02*
X100288000Y-62865000D01*
%TO.N,Net-(R4-Pad2)*%
X94170000Y-64135000D02*
X93154500Y-65150500D01*
X95038000Y-64135000D02*
X94170000Y-64135000D01*
%TO.N,Net-(R5-Pad2)*%
X91548614Y-63500000D02*
X93453614Y-61595000D01*
X93453614Y-61595000D02*
X95038000Y-61595000D01*
X89027000Y-63500000D02*
X91548614Y-63500000D01*
%TO.N,Net-(R3-Pad1)*%
X102045000Y-64135000D02*
X102235000Y-64325000D01*
X100288000Y-64135000D02*
X102045000Y-64135000D01*
%TD*%
D16*
%TO.N,GND*%
X98678496Y-59076640D02*
X98661341Y-59133190D01*
X98655549Y-59192000D01*
X98655549Y-60442000D01*
X98661341Y-60500810D01*
X98678496Y-60557360D01*
X98706353Y-60609477D01*
X98743842Y-60655158D01*
X98757001Y-60665957D01*
X98757001Y-60729604D01*
X98753613Y-60764000D01*
X98759777Y-60826579D01*
X98767129Y-60901224D01*
X98768314Y-60905129D01*
X98807155Y-61033174D01*
X98872155Y-61154781D01*
X98912729Y-61204220D01*
X98959631Y-61261370D01*
X98986342Y-61283291D01*
X99161549Y-61458498D01*
X99161549Y-61745000D01*
X99170224Y-61833074D01*
X99195914Y-61917763D01*
X99237632Y-61995813D01*
X99293776Y-62064224D01*
X99362187Y-62120368D01*
X99440237Y-62162086D01*
X99524926Y-62187776D01*
X99588000Y-62193989D01*
X99588001Y-62266011D01*
X99524926Y-62272224D01*
X99440237Y-62297914D01*
X99362187Y-62339632D01*
X99293776Y-62395776D01*
X99237632Y-62464187D01*
X99195914Y-62542237D01*
X99170224Y-62626926D01*
X99161549Y-62715000D01*
X99161549Y-63015000D01*
X99170224Y-63103074D01*
X99195914Y-63187763D01*
X99237632Y-63265813D01*
X99293776Y-63334224D01*
X99362187Y-63390368D01*
X99440237Y-63432086D01*
X99524926Y-63457776D01*
X99613000Y-63466451D01*
X99928288Y-63466451D01*
X99991053Y-63500000D01*
X99928287Y-63533549D01*
X99613000Y-63533549D01*
X99524926Y-63542224D01*
X99440237Y-63567914D01*
X99362187Y-63609632D01*
X99293776Y-63665776D01*
X99237632Y-63734187D01*
X99195914Y-63812237D01*
X99170224Y-63896926D01*
X99161549Y-63985000D01*
X99161549Y-64285000D01*
X99170224Y-64373074D01*
X99195914Y-64457763D01*
X99237632Y-64535813D01*
X99293776Y-64604224D01*
X99362187Y-64660368D01*
X99440237Y-64702086D01*
X99449843Y-64705000D01*
X99157887Y-64705000D01*
X99123500Y-64701613D01*
X99089113Y-64705000D01*
X99089110Y-64705000D01*
X98986276Y-64715128D01*
X98854325Y-64755155D01*
X98732719Y-64820155D01*
X98661494Y-64878608D01*
X98626130Y-64907630D01*
X98604208Y-64934342D01*
X98017342Y-65521209D01*
X97990630Y-65543131D01*
X97968709Y-65569842D01*
X97968708Y-65569843D01*
X97903155Y-65649719D01*
X97893925Y-65666988D01*
X97838155Y-65771326D01*
X97798128Y-65903277D01*
X97788000Y-66006110D01*
X97784613Y-66040500D01*
X97788000Y-66074888D01*
X97788001Y-66766260D01*
X97786549Y-66781000D01*
X97786549Y-67331000D01*
X97796184Y-67428828D01*
X97824720Y-67522897D01*
X97871059Y-67609591D01*
X97933421Y-67685579D01*
X98009409Y-67747941D01*
X98096103Y-67794280D01*
X98190172Y-67822816D01*
X98288000Y-67832451D01*
X98688000Y-67832451D01*
X98785828Y-67822816D01*
X98879897Y-67794280D01*
X98966591Y-67747941D01*
X99042579Y-67685579D01*
X99104941Y-67609591D01*
X99151280Y-67522897D01*
X99179816Y-67428828D01*
X99189451Y-67331000D01*
X99189451Y-66781000D01*
X99188000Y-66766267D01*
X99188000Y-66330449D01*
X99413450Y-66105000D01*
X103101857Y-66105000D01*
X103207326Y-66262846D01*
X103367507Y-66423027D01*
X103555860Y-66548880D01*
X103765146Y-66635570D01*
X103987324Y-66679764D01*
X104213854Y-66679764D01*
X104436032Y-66635570D01*
X104645318Y-66548880D01*
X104833671Y-66423027D01*
X104931001Y-66325697D01*
X104931001Y-67974000D01*
X93294047Y-67974000D01*
X89135011Y-64800000D01*
X89590864Y-64800000D01*
X89781845Y-64781190D01*
X90026896Y-64706855D01*
X90252736Y-64586140D01*
X90450687Y-64423687D01*
X90613140Y-64225736D01*
X90626896Y-64200000D01*
X90869348Y-64200000D01*
X90863684Y-64218672D01*
X90854049Y-64316500D01*
X90854049Y-64716500D01*
X90863684Y-64814328D01*
X90892220Y-64908397D01*
X90938559Y-64995091D01*
X91000921Y-65071079D01*
X91076909Y-65133441D01*
X91163603Y-65179780D01*
X91257672Y-65208316D01*
X91355500Y-65217951D01*
X91905500Y-65217951D01*
X91920233Y-65216500D01*
X92104113Y-65216500D01*
X92138500Y-65219887D01*
X92172887Y-65216500D01*
X92172890Y-65216500D01*
X92275724Y-65206372D01*
X92378049Y-65175332D01*
X92378049Y-65350500D01*
X92387684Y-65448328D01*
X92416220Y-65542397D01*
X92462559Y-65629091D01*
X92524921Y-65705079D01*
X92600909Y-65767441D01*
X92687603Y-65813780D01*
X92781672Y-65842316D01*
X92879500Y-65851951D01*
X93134845Y-65851951D01*
X93154500Y-65853887D01*
X93174155Y-65851951D01*
X93429500Y-65851951D01*
X93527328Y-65842316D01*
X93621397Y-65813780D01*
X93708091Y-65767441D01*
X93784079Y-65705079D01*
X93846441Y-65629091D01*
X93892780Y-65542397D01*
X93921316Y-65448328D01*
X93929476Y-65365473D01*
X94459950Y-64835000D01*
X95072390Y-64835000D01*
X95175224Y-64824872D01*
X95307175Y-64784845D01*
X95397713Y-64736451D01*
X95713000Y-64736451D01*
X95801074Y-64727776D01*
X95885763Y-64702086D01*
X95963813Y-64660368D01*
X96032224Y-64604224D01*
X96088368Y-64535813D01*
X96130086Y-64457763D01*
X96155776Y-64373074D01*
X96164451Y-64285000D01*
X96164451Y-63985000D01*
X96155776Y-63896926D01*
X96130086Y-63812237D01*
X96088368Y-63734187D01*
X96032224Y-63665776D01*
X95963813Y-63609632D01*
X95885763Y-63567914D01*
X95801074Y-63542224D01*
X95713000Y-63533549D01*
X95397713Y-63533549D01*
X95334948Y-63500000D01*
X95397713Y-63466451D01*
X95713000Y-63466451D01*
X95801074Y-63457776D01*
X95885763Y-63432086D01*
X95963813Y-63390368D01*
X96032224Y-63334224D01*
X96088368Y-63265813D01*
X96130086Y-63187763D01*
X96155776Y-63103074D01*
X96164451Y-63015000D01*
X96164451Y-62715000D01*
X96155776Y-62626926D01*
X96130086Y-62542237D01*
X96088368Y-62464187D01*
X96032224Y-62395776D01*
X95963813Y-62339632D01*
X95885763Y-62297914D01*
X95801074Y-62272224D01*
X95713000Y-62263549D01*
X95397713Y-62263549D01*
X95334948Y-62230000D01*
X95397713Y-62196451D01*
X95713000Y-62196451D01*
X95801074Y-62187776D01*
X95885763Y-62162086D01*
X95963813Y-62120368D01*
X96032224Y-62064224D01*
X96088368Y-61995813D01*
X96130086Y-61917763D01*
X96155776Y-61833074D01*
X96164451Y-61745000D01*
X96164451Y-61445000D01*
X96155776Y-61356926D01*
X96130086Y-61272237D01*
X96088368Y-61194187D01*
X96032224Y-61125776D01*
X95963813Y-61069632D01*
X95885763Y-61027914D01*
X95801074Y-61002224D01*
X95713000Y-60993549D01*
X95397713Y-60993549D01*
X95307175Y-60945155D01*
X95175224Y-60905128D01*
X95072390Y-60895000D01*
X93488001Y-60895000D01*
X93453614Y-60891613D01*
X93419227Y-60895000D01*
X93419224Y-60895000D01*
X93316390Y-60905128D01*
X93184439Y-60945155D01*
X93062832Y-61010155D01*
X92990360Y-61069632D01*
X92956244Y-61097630D01*
X92934323Y-61124342D01*
X92350642Y-61708022D01*
X92375411Y-61583501D01*
X92375411Y-61356971D01*
X92331217Y-61134793D01*
X92244527Y-60925507D01*
X92118674Y-60737154D01*
X91958493Y-60576973D01*
X91770140Y-60451120D01*
X91560854Y-60364430D01*
X91544503Y-60361178D01*
X93294047Y-59026000D01*
X98705564Y-59026000D01*
X98678496Y-59076640D01*
%TA.AperFunction,Conductor*%
D17*
G36*
X98678496Y-59076640D02*
G01*
X98661341Y-59133190D01*
X98655549Y-59192000D01*
X98655549Y-60442000D01*
X98661341Y-60500810D01*
X98678496Y-60557360D01*
X98706353Y-60609477D01*
X98743842Y-60655158D01*
X98757001Y-60665957D01*
X98757001Y-60729604D01*
X98753613Y-60764000D01*
X98759777Y-60826579D01*
X98767129Y-60901224D01*
X98768314Y-60905129D01*
X98807155Y-61033174D01*
X98872155Y-61154781D01*
X98912729Y-61204220D01*
X98959631Y-61261370D01*
X98986342Y-61283291D01*
X99161549Y-61458498D01*
X99161549Y-61745000D01*
X99170224Y-61833074D01*
X99195914Y-61917763D01*
X99237632Y-61995813D01*
X99293776Y-62064224D01*
X99362187Y-62120368D01*
X99440237Y-62162086D01*
X99524926Y-62187776D01*
X99588000Y-62193989D01*
X99588001Y-62266011D01*
X99524926Y-62272224D01*
X99440237Y-62297914D01*
X99362187Y-62339632D01*
X99293776Y-62395776D01*
X99237632Y-62464187D01*
X99195914Y-62542237D01*
X99170224Y-62626926D01*
X99161549Y-62715000D01*
X99161549Y-63015000D01*
X99170224Y-63103074D01*
X99195914Y-63187763D01*
X99237632Y-63265813D01*
X99293776Y-63334224D01*
X99362187Y-63390368D01*
X99440237Y-63432086D01*
X99524926Y-63457776D01*
X99613000Y-63466451D01*
X99928288Y-63466451D01*
X99991053Y-63500000D01*
X99928287Y-63533549D01*
X99613000Y-63533549D01*
X99524926Y-63542224D01*
X99440237Y-63567914D01*
X99362187Y-63609632D01*
X99293776Y-63665776D01*
X99237632Y-63734187D01*
X99195914Y-63812237D01*
X99170224Y-63896926D01*
X99161549Y-63985000D01*
X99161549Y-64285000D01*
X99170224Y-64373074D01*
X99195914Y-64457763D01*
X99237632Y-64535813D01*
X99293776Y-64604224D01*
X99362187Y-64660368D01*
X99440237Y-64702086D01*
X99449843Y-64705000D01*
X99157887Y-64705000D01*
X99123500Y-64701613D01*
X99089113Y-64705000D01*
X99089110Y-64705000D01*
X98986276Y-64715128D01*
X98854325Y-64755155D01*
X98732719Y-64820155D01*
X98661494Y-64878608D01*
X98626130Y-64907630D01*
X98604208Y-64934342D01*
X98017342Y-65521209D01*
X97990630Y-65543131D01*
X97968709Y-65569842D01*
X97968708Y-65569843D01*
X97903155Y-65649719D01*
X97893925Y-65666988D01*
X97838155Y-65771326D01*
X97798128Y-65903277D01*
X97788000Y-66006110D01*
X97784613Y-66040500D01*
X97788000Y-66074888D01*
X97788001Y-66766260D01*
X97786549Y-66781000D01*
X97786549Y-67331000D01*
X97796184Y-67428828D01*
X97824720Y-67522897D01*
X97871059Y-67609591D01*
X97933421Y-67685579D01*
X98009409Y-67747941D01*
X98096103Y-67794280D01*
X98190172Y-67822816D01*
X98288000Y-67832451D01*
X98688000Y-67832451D01*
X98785828Y-67822816D01*
X98879897Y-67794280D01*
X98966591Y-67747941D01*
X99042579Y-67685579D01*
X99104941Y-67609591D01*
X99151280Y-67522897D01*
X99179816Y-67428828D01*
X99189451Y-67331000D01*
X99189451Y-66781000D01*
X99188000Y-66766267D01*
X99188000Y-66330449D01*
X99413450Y-66105000D01*
X103101857Y-66105000D01*
X103207326Y-66262846D01*
X103367507Y-66423027D01*
X103555860Y-66548880D01*
X103765146Y-66635570D01*
X103987324Y-66679764D01*
X104213854Y-66679764D01*
X104436032Y-66635570D01*
X104645318Y-66548880D01*
X104833671Y-66423027D01*
X104931001Y-66325697D01*
X104931001Y-67974000D01*
X93294047Y-67974000D01*
X89135011Y-64800000D01*
X89590864Y-64800000D01*
X89781845Y-64781190D01*
X90026896Y-64706855D01*
X90252736Y-64586140D01*
X90450687Y-64423687D01*
X90613140Y-64225736D01*
X90626896Y-64200000D01*
X90869348Y-64200000D01*
X90863684Y-64218672D01*
X90854049Y-64316500D01*
X90854049Y-64716500D01*
X90863684Y-64814328D01*
X90892220Y-64908397D01*
X90938559Y-64995091D01*
X91000921Y-65071079D01*
X91076909Y-65133441D01*
X91163603Y-65179780D01*
X91257672Y-65208316D01*
X91355500Y-65217951D01*
X91905500Y-65217951D01*
X91920233Y-65216500D01*
X92104113Y-65216500D01*
X92138500Y-65219887D01*
X92172887Y-65216500D01*
X92172890Y-65216500D01*
X92275724Y-65206372D01*
X92378049Y-65175332D01*
X92378049Y-65350500D01*
X92387684Y-65448328D01*
X92416220Y-65542397D01*
X92462559Y-65629091D01*
X92524921Y-65705079D01*
X92600909Y-65767441D01*
X92687603Y-65813780D01*
X92781672Y-65842316D01*
X92879500Y-65851951D01*
X93134845Y-65851951D01*
X93154500Y-65853887D01*
X93174155Y-65851951D01*
X93429500Y-65851951D01*
X93527328Y-65842316D01*
X93621397Y-65813780D01*
X93708091Y-65767441D01*
X93784079Y-65705079D01*
X93846441Y-65629091D01*
X93892780Y-65542397D01*
X93921316Y-65448328D01*
X93929476Y-65365473D01*
X94459950Y-64835000D01*
X95072390Y-64835000D01*
X95175224Y-64824872D01*
X95307175Y-64784845D01*
X95397713Y-64736451D01*
X95713000Y-64736451D01*
X95801074Y-64727776D01*
X95885763Y-64702086D01*
X95963813Y-64660368D01*
X96032224Y-64604224D01*
X96088368Y-64535813D01*
X96130086Y-64457763D01*
X96155776Y-64373074D01*
X96164451Y-64285000D01*
X96164451Y-63985000D01*
X96155776Y-63896926D01*
X96130086Y-63812237D01*
X96088368Y-63734187D01*
X96032224Y-63665776D01*
X95963813Y-63609632D01*
X95885763Y-63567914D01*
X95801074Y-63542224D01*
X95713000Y-63533549D01*
X95397713Y-63533549D01*
X95334948Y-63500000D01*
X95397713Y-63466451D01*
X95713000Y-63466451D01*
X95801074Y-63457776D01*
X95885763Y-63432086D01*
X95963813Y-63390368D01*
X96032224Y-63334224D01*
X96088368Y-63265813D01*
X96130086Y-63187763D01*
X96155776Y-63103074D01*
X96164451Y-63015000D01*
X96164451Y-62715000D01*
X96155776Y-62626926D01*
X96130086Y-62542237D01*
X96088368Y-62464187D01*
X96032224Y-62395776D01*
X95963813Y-62339632D01*
X95885763Y-62297914D01*
X95801074Y-62272224D01*
X95713000Y-62263549D01*
X95397713Y-62263549D01*
X95334948Y-62230000D01*
X95397713Y-62196451D01*
X95713000Y-62196451D01*
X95801074Y-62187776D01*
X95885763Y-62162086D01*
X95963813Y-62120368D01*
X96032224Y-62064224D01*
X96088368Y-61995813D01*
X96130086Y-61917763D01*
X96155776Y-61833074D01*
X96164451Y-61745000D01*
X96164451Y-61445000D01*
X96155776Y-61356926D01*
X96130086Y-61272237D01*
X96088368Y-61194187D01*
X96032224Y-61125776D01*
X95963813Y-61069632D01*
X95885763Y-61027914D01*
X95801074Y-61002224D01*
X95713000Y-60993549D01*
X95397713Y-60993549D01*
X95307175Y-60945155D01*
X95175224Y-60905128D01*
X95072390Y-60895000D01*
X93488001Y-60895000D01*
X93453614Y-60891613D01*
X93419227Y-60895000D01*
X93419224Y-60895000D01*
X93316390Y-60905128D01*
X93184439Y-60945155D01*
X93062832Y-61010155D01*
X92990360Y-61069632D01*
X92956244Y-61097630D01*
X92934323Y-61124342D01*
X92350642Y-61708022D01*
X92375411Y-61583501D01*
X92375411Y-61356971D01*
X92331217Y-61134793D01*
X92244527Y-60925507D01*
X92118674Y-60737154D01*
X91958493Y-60576973D01*
X91770140Y-60451120D01*
X91560854Y-60364430D01*
X91544503Y-60361178D01*
X93294047Y-59026000D01*
X98705564Y-59026000D01*
X98678496Y-59076640D01*
G37*
%TD.AperFunction*%
%TD*%
M02*
