G04 #@! TF.GenerationSoftware,KiCad,Pcbnew,(5.1.5)-3*
G04 #@! TF.CreationDate,2020-07-16T12:36:10-05:00*
G04 #@! TF.ProjectId,pcb-pms150c,7063622d-706d-4733-9135-30632e6b6963,rev?*
G04 #@! TF.SameCoordinates,Original*
G04 #@! TF.FileFunction,Legend,Top*
G04 #@! TF.FilePolarity,Positive*
%FSLAX46Y46*%
G04 Gerber Fmt 4.6, Leading zero omitted, Abs format (unit mm)*
G04 Created by KiCad (PCBNEW (5.1.5)-3) date 2020-07-16 12:36:10*
%MOMM*%
%LPD*%
G04 APERTURE LIST*
%ADD10C,0.120000*%
%ADD11C,0.100000*%
%ADD12C,0.080000*%
%ADD13C,0.150000*%
G04 APERTURE END LIST*
D10*
X139985000Y-101610000D02*
G75*
G03X139985000Y-101610000I-6000000J0D01*
G01*
D11*
X138239500Y-103314500D02*
X139509500Y-103314500D01*
X139499500Y-102600000D02*
X139499500Y-100600000D01*
X138249500Y-102600000D02*
X138249500Y-100600000D01*
X130375500Y-97822000D02*
X130375500Y-99822000D01*
X131625500Y-97822000D02*
X131625500Y-99822000D01*
X137594500Y-97790000D02*
X137594500Y-99790000D01*
X136344500Y-97790000D02*
X136344500Y-99790000D01*
X137594500Y-105410000D02*
X137594500Y-103410000D01*
X136344500Y-105410000D02*
X136344500Y-103410000D01*
D10*
X133085000Y-103210000D02*
X134885000Y-103210000D01*
X134885000Y-99990000D02*
X132435000Y-99990000D01*
X130740000Y-101600000D02*
G75*
G03X130740000Y-101600000I-1200000J0D01*
G01*
X132073500Y-104775000D02*
G75*
G03X132073500Y-104775000I-1200000J0D01*
G01*
D12*
X133456428Y-96286642D02*
X133542142Y-96315214D01*
X133570714Y-96343785D01*
X133599285Y-96400928D01*
X133599285Y-96486642D01*
X133570714Y-96543785D01*
X133542142Y-96572357D01*
X133485000Y-96600928D01*
X133256428Y-96600928D01*
X133256428Y-96000928D01*
X133456428Y-96000928D01*
X133513571Y-96029500D01*
X133542142Y-96058071D01*
X133570714Y-96115214D01*
X133570714Y-96172357D01*
X133542142Y-96229500D01*
X133513571Y-96258071D01*
X133456428Y-96286642D01*
X133256428Y-96286642D01*
X133799285Y-96000928D02*
X134199285Y-96000928D01*
X133799285Y-96600928D01*
X134199285Y-96600928D01*
X134742142Y-96600928D02*
X134399285Y-96600928D01*
X134570714Y-96600928D02*
X134570714Y-96000928D01*
X134513571Y-96086642D01*
X134456428Y-96143785D01*
X134399285Y-96172357D01*
D13*
X133992928Y-107378452D02*
X133992928Y-106616547D01*
X134373880Y-106997500D02*
X133611976Y-106997500D01*
D11*
X138505452Y-101826190D02*
X138505452Y-101326190D01*
X138624500Y-101326190D01*
X138695928Y-101350000D01*
X138743547Y-101397619D01*
X138767357Y-101445238D01*
X138791166Y-101540476D01*
X138791166Y-101611904D01*
X138767357Y-101707142D01*
X138743547Y-101754761D01*
X138695928Y-101802380D01*
X138624500Y-101826190D01*
X138505452Y-101826190D01*
X139267357Y-101826190D02*
X138981642Y-101826190D01*
X139124500Y-101826190D02*
X139124500Y-101326190D01*
X139076880Y-101397619D01*
X139029261Y-101445238D01*
X138981642Y-101469047D01*
X130917166Y-99048190D02*
X130750500Y-98810095D01*
X130631452Y-99048190D02*
X130631452Y-98548190D01*
X130821928Y-98548190D01*
X130869547Y-98572000D01*
X130893357Y-98595809D01*
X130917166Y-98643428D01*
X130917166Y-98714857D01*
X130893357Y-98762476D01*
X130869547Y-98786285D01*
X130821928Y-98810095D01*
X130631452Y-98810095D01*
X131393357Y-99048190D02*
X131107642Y-99048190D01*
X131250500Y-99048190D02*
X131250500Y-98548190D01*
X131202880Y-98619619D01*
X131155261Y-98667238D01*
X131107642Y-98691047D01*
X136886166Y-99016190D02*
X136719500Y-98778095D01*
X136600452Y-99016190D02*
X136600452Y-98516190D01*
X136790928Y-98516190D01*
X136838547Y-98540000D01*
X136862357Y-98563809D01*
X136886166Y-98611428D01*
X136886166Y-98682857D01*
X136862357Y-98730476D01*
X136838547Y-98754285D01*
X136790928Y-98778095D01*
X136600452Y-98778095D01*
X137076642Y-98563809D02*
X137100452Y-98540000D01*
X137148071Y-98516190D01*
X137267119Y-98516190D01*
X137314738Y-98540000D01*
X137338547Y-98563809D01*
X137362357Y-98611428D01*
X137362357Y-98659047D01*
X137338547Y-98730476D01*
X137052833Y-99016190D01*
X137362357Y-99016190D01*
X136886166Y-104636190D02*
X136719500Y-104398095D01*
X136600452Y-104636190D02*
X136600452Y-104136190D01*
X136790928Y-104136190D01*
X136838547Y-104160000D01*
X136862357Y-104183809D01*
X136886166Y-104231428D01*
X136886166Y-104302857D01*
X136862357Y-104350476D01*
X136838547Y-104374285D01*
X136790928Y-104398095D01*
X136600452Y-104398095D01*
X137052833Y-104136190D02*
X137362357Y-104136190D01*
X137195690Y-104326666D01*
X137267119Y-104326666D01*
X137314738Y-104350476D01*
X137338547Y-104374285D01*
X137362357Y-104421904D01*
X137362357Y-104540952D01*
X137338547Y-104588571D01*
X137314738Y-104612380D01*
X137267119Y-104636190D01*
X137124261Y-104636190D01*
X137076642Y-104612380D01*
X137052833Y-104588571D01*
D12*
X133656428Y-102057142D02*
X134142142Y-102057142D01*
X134199285Y-102028571D01*
X134227857Y-102000000D01*
X134256428Y-101942857D01*
X134256428Y-101828571D01*
X134227857Y-101771428D01*
X134199285Y-101742857D01*
X134142142Y-101714285D01*
X133656428Y-101714285D01*
X134256428Y-101114285D02*
X134256428Y-101457142D01*
X134256428Y-101285714D02*
X133656428Y-101285714D01*
X133742142Y-101342857D01*
X133799285Y-101400000D01*
X133827857Y-101457142D01*
X128465357Y-99683928D02*
X128808214Y-99683928D01*
X128636785Y-100283928D02*
X128636785Y-99683928D01*
X129008214Y-100283928D02*
X129008214Y-99683928D01*
X129236785Y-99683928D01*
X129293928Y-99712500D01*
X129322500Y-99741071D01*
X129351071Y-99798214D01*
X129351071Y-99883928D01*
X129322500Y-99941071D01*
X129293928Y-99969642D01*
X129236785Y-99998214D01*
X129008214Y-99998214D01*
X129922500Y-100283928D02*
X129579642Y-100283928D01*
X129751071Y-100283928D02*
X129751071Y-99683928D01*
X129693928Y-99769642D01*
X129636785Y-99826785D01*
X129579642Y-99855357D01*
X130878357Y-106097428D02*
X131221214Y-106097428D01*
X131049785Y-106697428D02*
X131049785Y-106097428D01*
X131421214Y-106697428D02*
X131421214Y-106097428D01*
X131649785Y-106097428D01*
X131706928Y-106126000D01*
X131735500Y-106154571D01*
X131764071Y-106211714D01*
X131764071Y-106297428D01*
X131735500Y-106354571D01*
X131706928Y-106383142D01*
X131649785Y-106411714D01*
X131421214Y-106411714D01*
X131992642Y-106154571D02*
X132021214Y-106126000D01*
X132078357Y-106097428D01*
X132221214Y-106097428D01*
X132278357Y-106126000D01*
X132306928Y-106154571D01*
X132335500Y-106211714D01*
X132335500Y-106268857D01*
X132306928Y-106354571D01*
X131964071Y-106697428D01*
X132335500Y-106697428D01*
M02*
